HIERARCHY
ROOT Hips
{
	OFFSET 0.00000 0.00000 0.00000
	CHANNELS 6 Xposition Yposition Zposition Zrotation Yrotation Xrotation 
	JOINT RightUpLegDummy
	{
		OFFSET 0 0 0
		CHANNELS 3 Zrotation Yrotation Xrotation
		JOINT RightUpLeg
		{
			OFFSET -3.52197 -3.41223 0.04002
			CHANNELS 3 Zrotation Yrotation Xrotation
			JOINT RightLeg
			{
				OFFSET 0.00006 -17.42390 1.60435
				CHANNELS 3 Zrotation Yrotation Xrotation
				JOINT RightFoot
				{
					OFFSET 0.06153 -16.50078 -1.63901
					CHANNELS 3 Zrotation Yrotation Xrotation
					JOINT RightToes
					{
						OFFSET 0.00298 -1.73825 3.34613
						CHANNELS 3 Zrotation Yrotation Xrotation
						End Site
						{
							OFFSET 0.00480 -0.05416 3.85043
						}
					}
				}
			}
		}
	}
	JOINT SpineDummy
	{
		OFFSET 0 0 0
		CHANNELS 3 Zrotation Yrotation Xrotation
		JOINT Spine
		{
			OFFSET 0.00000 4.68130 0.00000
			CHANNELS 3 Zrotation Yrotation Xrotation
			JOINT Spine1
			{
				OFFSET -0.00000 10.10138 0.05002
				CHANNELS 3 Zrotation Yrotation Xrotation
				JOINT HEadDummy
				{
					OFFSET 0 0 0
					CHANNELS 3 Zrotation Yrotation Xrotation
					JOINT Head
					{
						OFFSET -0.00000 3.43865 0.00438
						CHANNELS 3 Zrotation Yrotation Xrotation
						End Site
						{
							OFFSET -0.11417 5.02924 0.98962
						}
					}
				}
				JOINT LeftShoulder1Dummy
				{
					OFFSET 0 0 0
					CHANNELS 3 Zrotation Yrotation Xrotation
					JOINT LeftShoulder1
					{
						OFFSET 3.53937 -0.14262 -0.08662
						CHANNELS 3 Zrotation Yrotation Xrotation
						JOINT LeftArm
						{
							OFFSET 4.04833 -0.00133 0.12681
							CHANNELS 3 Zrotation Yrotation Xrotation
							JOINT LeftForeArm
							{
								OFFSET 10.33880 -0.01036 -0.55515
								CHANNELS 3 Zrotation Yrotation Xrotation
								JOINT LeftHand
								{
									OFFSET 8.69677 0.07543 0.40060
									CHANNELS 3 Zrotation Yrotation Xrotation
									End Site
									{
										OFFSET 5.28377 -0.21905 0.59205
									}
								}
							}
						}
					}
				}
				JOINT RightShoulderDummy
				{
					OFFSET 0 0 0
					CHANNELS 3 Zrotation Yrotation Xrotation
					JOINT RightShoulder
					{
						OFFSET -3.53937 -0.14262 -0.08660
						CHANNELS 3 Zrotation Yrotation Xrotation
						JOINT RightArm
						{
							OFFSET -4.04833 -0.00133 0.12683
							CHANNELS 3 Zrotation Yrotation Xrotation
							JOINT RightForeArm
							{
								OFFSET -10.37987 -0.01039 -0.55511
								CHANNELS 3 Zrotation Yrotation Xrotation
								JOINT RightHand
								{
									OFFSET -8.67398 0.07538 0.40058
									CHANNELS 3 Zrotation Yrotation Xrotation
									End Site
									{
										OFFSET -5.24810 -0.21916 0.59204
									}
								}
							}
						}
					}
				}
			}
		}
	}
	JOINT LeftUpLegDummy
	{
		OFFSET 0 0 0
		CHANNELS 3 Zrotation Yrotation Xrotation
		JOINT LeftUpLeg
		{
			OFFSET 3.52197 -3.41223 0.04002
			CHANNELS 3 Zrotation Yrotation Xrotation
			JOINT LeftLeg
			{
				OFFSET -0.00012 -17.42399 1.60337
				CHANNELS 3 Zrotation Yrotation Xrotation
				JOINT LeftFoot
				{
					OFFSET -0.09972 -16.50070 -1.63802
					CHANNELS 3 Zrotation Yrotation Xrotation
					JOINT LeftToes
					{
						OFFSET -0.01575 -1.73823 3.34611
						CHANNELS 3 Zrotation Yrotation Xrotation
						End Site
						{
							OFFSET 0.03150 -0.01868 3.85031
						}
					}
				}
			}
		}
	}
}
MOTION
Frames: 11
Frame Time: 0.033333
35.1095 39.9461 67.8097 -178.4950 0.6141 179.1290 0.0000 0.0000 0.0000 1.5992 -1.4444 1.6590 -1.2248 -4.1206 2.8031 -0.1446 -0.0146 -3.7777 0.0000 -0.0000 0.0000 0.0000 0.0000 0.0000 -0.3932 -0.6536 0.3225 4.2543 -1.4816 0.7118 -0.0000 0.0000 -0.0000 0.5516 1.5059 -2.5929 -0.0000 0.0000 -0.0000 -33.9347 -2.9241 2.5686 -44.8822 -15.4409 -17.0262 -10.4922 5.0310 51.3321 15.0265 -3.6844 -1.1472 -0.0000 0.0000 -0.0000 34.3752 5.0411 3.4512 40.0820 6.4034 -14.5250 11.4760 -0.7960 26.1280 -10.4189 2.6580 -0.7005 0.0000 0.0000 0.0000 3.0721 2.3404 1.1507 1.0380 2.6911 4.7420 2.6615 -0.1137 -5.1063 0.0000 0.0000 -0.0000
35.1095 39.9461 67.8138 -178.4930 0.6124 179.1120 0.0000 0.0000 0.0000 1.5995 -1.4482 1.6720 -1.2215 -4.1166 2.8030 -0.1446 -0.0146 -3.7661 0.0000 -0.0000 0.0000 0.0000 0.0000 0.0000 -0.3202 -0.7040 0.2656 4.1844 -1.5284 0.8347 -0.0000 0.0000 -0.0000 0.5301 1.6073 -2.6399 -0.0000 0.0000 -0.0000 -34.0039 -2.8888 2.5590 -44.7828 -15.4008 -17.0745 -10.4646 5.0311 51.3402 14.9602 -3.5865 -1.1300 -0.0000 0.0000 -0.0000 34.2194 5.0158 3.4276 40.2820 6.6289 -14.5956 11.4254 -0.9347 26.2765 -10.4539 2.4591 -0.6865 0.0000 0.0000 0.0000 3.0953 2.3767 1.1639 0.9935 2.6552 4.7400 2.6829 -0.1151 -5.1064 0.0000 0.0000 -0.0000
35.1095 39.9461 67.8263 -178.5350 0.6828 179.0940 0.0000 0.0000 0.0000 1.5505 -1.4703 1.6321 -1.2168 -4.0227 2.8697 -0.1446 -0.0146 -3.7746 0.0000 -0.0000 0.0000 0.0000 0.0000 0.0000 -0.2543 -0.7331 0.2465 4.0914 -1.5476 0.9338 -0.0000 0.0000 -0.0000 0.4231 1.6999 -2.7198 -0.0000 0.0000 -0.0000 -34.0745 -2.8310 2.5404 -44.6947 -15.3116 -17.1891 -10.4053 5.0313 51.3559 14.8846 -3.4998 -1.1136 -0.0000 0.0000 -0.0000 33.9916 4.9732 3.3909 40.5826 6.9313 -14.7097 11.3473 -1.1141 26.4947 -10.4821 2.1963 -0.6668 0.0000 0.0000 0.0000 3.0625 2.3838 1.2039 0.9653 2.7194 4.6790 2.7101 -0.1169 -5.0690 0.0000 0.0000 -0.0000
35.1069 39.9461 67.8448 -178.6350 0.8235 179.0640 0.0000 0.0000 0.0000 1.4366 -1.5191 1.5498 -1.2111 -3.8309 3.0118 -0.1447 -0.0145 -3.8087 0.0000 -0.0000 0.0000 0.0000 0.0000 0.0000 -0.2467 -0.7066 0.3393 3.9904 -1.4999 0.9033 -0.0000 0.0000 -0.0000 0.2630 1.7764 -2.7742 -0.0000 0.0000 -0.0000 -34.0242 -2.7715 2.5134 -44.7497 -15.1926 -17.2786 -10.3739 5.0357 51.2239 14.8688 -3.5014 -1.1126 -0.0000 0.0000 -0.0000 33.9706 4.9713 3.3884 40.6316 7.0720 -14.7219 11.3330 -1.1805 26.5417 -10.4769 2.0846 -0.6572 0.0000 0.0000 0.0000 2.9487 2.3377 1.2933 0.9745 2.9067 4.5430 2.7208 -0.1176 -4.9855 0.0000 0.0000 -0.0000
35.1014 39.9461 67.8623 -178.7060 0.9359 179.0230 0.0000 0.0000 0.0000 1.3504 -1.5557 1.4997 -1.2075 -3.6806 3.1231 -0.1544 -0.0138 -3.8276 0.0000 -0.0000 0.0000 0.0000 0.0000 0.0000 -0.1791 -0.6869 0.4367 3.8245 -1.4497 0.8730 -0.0000 0.0000 -0.0000 0.1710 1.9718 -2.8107 -0.0000 0.0000 -0.0000 -33.8386 -2.7029 2.4744 -44.9460 -15.0699 -17.2512 -10.4058 5.0443 50.9339 14.8526 -3.5151 -1.1130 -0.0000 0.0000 -0.0000 34.1798 5.0205 3.4261 40.3992 7.1264 -14.6632 11.3704 -1.2285 26.4587 -10.4773 2.0780 -0.6567 0.0000 0.0000 0.0000 2.8643 2.3073 1.3759 0.9785 3.0525 4.4402 2.7284 -0.1180 -4.9210 0.0000 0.0000 -0.0000
35.0938 39.9461 67.8739 -178.6730 0.9744 179.0000 0.0000 0.0000 0.0000 1.3759 -1.5378 1.5071 -1.2092 -3.6645 3.1136 -0.1613 -0.0134 -3.8001 0.0000 -0.0000 0.0000 0.0000 0.0000 0.0000 0.0348 -0.7059 0.4297 3.6073 -1.4403 0.9451 -0.0000 0.0000 -0.0000 0.2171 2.2783 -2.8934 -0.0000 0.0000 -0.0000 -33.6346 -2.6252 2.4308 -45.1771 -14.9610 -17.1365 -10.4585 5.0496 50.7389 14.7697 -3.4940 -1.1040 -0.0000 0.0000 -0.0000 34.3778 5.0668 3.4619 40.1864 7.2672 -14.7237 11.3591 -1.4297 26.5122 -10.5066 2.0764 -0.6584 0.0000 0.0000 0.0000 2.9026 2.3460 1.3797 0.9533 3.0553 4.4570 2.7549 -0.1197 -4.9270 0.0000 0.0000 -0.0000
35.0869 39.9463 67.8809 -178.5880 1.0044 179.0000 0.0000 0.0000 0.0000 1.4618 -1.4862 1.5379 -1.2132 -3.6922 3.0247 -0.1412 -0.0149 -3.7453 0.0000 -0.0000 0.0000 0.0000 0.0000 0.0000 0.2690 -0.7136 0.3655 3.4669 -1.4365 1.0533 -0.0000 0.0000 -0.0000 0.3143 2.5059 -3.0491 -0.0000 0.0000 -0.0000 -33.5387 -2.5593 2.3988 -45.3409 -14.8971 -17.0624 -10.4614 5.0469 50.8268 14.6691 -3.4861 -1.0952 -0.0000 0.0000 -0.0000 34.3928 5.0718 3.4652 40.1788 7.4759 -14.9511 11.2686 -1.7513 26.7821 -10.5230 2.1231 -0.6634 0.0000 0.0000 0.0000 3.0022 2.4163 1.3459 0.9212 3.0143 4.5172 2.7883 -0.1219 -4.9611 0.0000 0.0000 -0.0000
35.0828 39.9465 67.8879 -178.5550 1.0637 178.9880 0.0000 0.0000 0.0000 1.4979 -1.4564 1.5633 -1.2202 -3.6609 2.9640 -0.1107 -0.0170 -3.7066 0.0000 -0.0000 0.0000 0.0000 0.0000 0.0000 0.3305 -0.6769 0.3339 3.5067 -1.4125 1.1294 -0.0000 0.0000 -0.0000 0.3267 2.5546 -3.2216 -0.0000 0.0000 -0.0000 -33.5525 -2.5190 2.3837 -45.4336 -14.9313 -17.0836 -10.4110 5.0407 51.0495 14.6468 -3.4989 -1.0950 -0.0000 0.0000 -0.0000 34.3084 5.0563 3.4516 40.2361 7.6162 -15.1639 11.1834 -2.0067 27.0538 -10.4843 2.2659 -0.6727 0.0000 0.0000 0.0000 3.0396 2.4463 1.3636 0.9106 3.0412 4.5048 2.7951 -0.1223 -4.9521 0.0000 0.0000 -0.0000
35.0814 39.9469 67.8984 -178.5870 1.0679 178.9660 0.0000 0.0000 0.0000 1.4713 -1.4569 1.5670 -1.2401 -3.6451 2.9692 -0.0974 -0.0178 -3.6962 0.0000 -0.0000 0.0000 0.0000 0.0000 0.0000 0.2616 -0.6519 0.3833 3.5972 -1.4002 1.1037 -0.0000 0.0000 -0.0000 0.2973 2.5394 -3.2950 -0.0000 0.0000 -0.0000 -33.5402 -2.4877 2.3706 -45.5269 -15.0117 -17.1058 -10.3824 5.0377 51.1568 14.7078 -3.4638 -1.0956 -0.0000 0.0000 -0.0000 34.3491 5.0646 3.4585 40.1483 7.5947 -15.2143 11.1750 -2.0945 27.1554 -10.4160 2.4070 -0.6797 0.0000 0.0000 0.0000 3.0006 2.4249 1.3986 0.9151 3.0690 4.4469 2.7796 -0.1213 -4.9055 0.0000 0.0000 -0.0000
35.0811 39.9474 67.9130 -178.6130 0.9447 178.9800 0.0000 0.0000 0.0000 1.4544 -1.4520 1.5267 -1.2749 -3.7633 2.9926 -0.0895 -0.0184 -3.6887 0.0000 -0.0000 0.0000 0.0000 0.0000 0.0000 0.1679 -0.6739 0.3564 3.6827 -1.4364 1.1467 -0.0000 0.0000 -0.0000 0.3291 2.5469 -3.3126 -0.0000 0.0000 -0.0000 -33.4322 -2.4593 2.3529 -45.6873 -15.1296 -17.0290 -10.4132 5.0395 51.0860 14.7489 -3.3699 -1.0875 -0.0000 0.0000 -0.0000 34.4642 5.0834 3.4761 40.0118 7.5601 -15.1956 11.1905 -2.1104 27.1780 -10.3892 2.4452 -0.6810 0.0000 0.0000 0.0000 2.9698 2.4007 1.3374 0.9050 2.9762 4.4469 2.7842 -0.1216 -4.8773 0.0000 0.0000 -0.0000
35.0811 39.9478 67.9281 -178.6040 0.7719 179.0390 0.0000 0.0000 0.0000 1.4732 -1.4317 1.4534 -1.3052 -3.9555 2.9876 -0.0586 -0.0204 -3.6651 0.0000 -0.0000 0.0000 0.0000 0.0000 0.0000 0.1044 -0.7112 0.2446 3.7657 -1.4920 1.2538 -0.0000 0.0000 -0.0000 0.4530 2.5119 -3.3484 -0.0000 0.0000 -0.0000 -33.2863 -2.4353 2.3346 -45.8730 -15.2175 -16.8903 -10.4738 5.0434 50.9353 14.6929 -3.2806 -1.0725 -0.0000 0.0000 -0.0000 34.5327 5.0892 3.4842 39.9684 7.5761 -15.1956 11.1880 -2.1296 27.2260 -10.4498 2.4099 -0.6822 0.0000 0.0000 0.0000 2.9884 2.4081 1.1913 0.8664 2.7952 4.5030 2.8196 -0.1239 -4.8786 0.0000 0.0000 -0.0000
